<svg width="45" height="45" viewBox="0 0 45 45" fill="none" xmlns="http://www.w3.org/2000/svg">
<circle cx="22.5" cy="22.5" r="22.5" fill="#5980FF"/>
<path d="M14.7614 34V10.7273H24.375C26.1174 10.7273 27.6212 11.0682 28.8864 11.75C30.1591 12.4242 31.1402 13.3674 31.8295 14.5795C32.5189 15.7841 32.8636 17.1856 32.8636 18.7841C32.8636 20.3902 32.5114 21.7955 31.8068 23C31.1098 24.197 30.1136 25.125 28.8182 25.7841C27.5227 26.4432 25.9848 26.7727 24.2045 26.7727H18.2727V22.3409H23.1591C24.0076 22.3409 24.7159 22.1932 25.2841 21.8977C25.8598 21.6023 26.2955 21.1894 26.5909 20.6591C26.8864 20.1212 27.0341 19.4962 27.0341 18.7841C27.0341 18.0644 26.8864 17.4432 26.5909 16.9205C26.2955 16.3902 25.8598 15.9811 25.2841 15.6932C24.7083 15.4053 24 15.2614 23.1591 15.2614H20.3864V34H14.7614Z" fill="white"/>
</svg>
